<svg width="50" height="50" viewBox="0 0 50 50" fill="none" xmlns="http://www.w3.org/2000/svg">
<path d="M45 0H5C2.23858 0 0 2.23858 0 5V45C0 47.7614 2.23858 50 5 50H45C47.7614 50 50 47.7614 50 45V5C50 2.23858 47.7614 0 45 0Z" fill="#9575CD"/>
<path d="M25.279 40.9998C19.0498 40.9998 14 35.5473 14 28.8213C14 23.3112 18.4759 16.5786 21.9323 12.4781C23.5688 10.5367 26.6613 9 26.6613 9C26.6613 9 25.0764 16.8467 29.3757 19.9632C33.1919 22.7295 36 26.3285 36 29.4945C36 35.8344 31.5083 41 25.2791 41L25.279 40.9998Z" fill="white"/>
</svg>
