<svg width="50" height="50" viewBox="0 0 50 50" fill="none" xmlns="http://www.w3.org/2000/svg">
<path d="M31.3369 40.625C31.7275 41.1893 31.9662 41.1459 32.2699 41.0156C32.5736 40.8853 48.1988 35.6119 48.6762 35.4385C49.1535 35.2648 49.0018 35.1129 48.85 34.874C48.6981 34.6353 43.4897 27.5607 43.2291 27.1484C42.9688 26.7361 42.8385 26.8229 42.4262 26.9531L25.8627 31.2631C25.8627 31.2631 30.9463 40.0605 31.3369 40.625ZM50 33.4209V25.14C48.1365 25.6365 45.7795 26.2643 44.849 26.5117C46.2527 28.3898 48.4473 31.3291 50 33.4209ZM44.833 16.3127C44.5777 16.3707 38.9254 17.3922 38.5772 17.4385C38.2291 17.485 38.3451 17.6822 38.4844 17.8795L43.4584 24.7043C43.4584 24.7043 49.5402 23.1955 49.9117 23.1143C49.9418 23.1076 49.9713 23.1006 50 23.0934V22.1896C48.8945 20.7879 45.8828 16.9713 45.6225 16.6146C45.3092 16.1852 45.0885 16.2549 44.833 16.3127Z" fill="#F35045"/>
<path d="M9.26875 5.59258C10.4928 5.53691 10.6045 5.81543 11.1422 6.61289L24.652 29.1992L41.6391 25.1299C40.6978 23.7957 36.4252 17.7381 36.0121 17.16C35.548 16.51 36.0238 16.2082 36.7783 16.0807C37.5326 15.9529 44.0322 14.8619 44.5892 14.7807C45.1465 14.6994 45.5877 14.5021 46.4928 15.5932C46.956 16.1514 48.5264 18.1068 50 19.9398V9.375C50 6.79258 49.083 4.58437 47.2494 2.75059C45.4156 0.916992 43.2074 0 40.625 0H9.375C6.79258 0 4.58437 0.916992 2.75059 2.75059C1.69883 3.80273 0.950195 4.97793 0.501953 6.27617C3.56406 6.02461 8.4123 5.63164 9.26894 5.59258H9.26875Z" fill="#F35045"/>
<path d="M32.8689 43.6648C31.4365 44.0988 30.7941 44.3143 29.8611 43.0121C29.1623 42.0369 25.3832 35.2303 23.5303 31.8748C20.0234 32.7932 13.6057 34.4682 11.7549 34.9129C9.94863 35.3469 9.17715 34.2639 8.88047 33.5965C8.67246 33.1281 3.37676 21.7105 0 14.3848V40.625C0 43.2076 0.916992 45.4154 2.75059 47.2494C4.58437 49.083 6.79258 50 9.375 50H40.625C43.2074 50 45.4156 49.083 47.2494 47.2494C49.083 45.4154 50 43.2076 50 40.625V37.5428C46.1641 38.9459 33.834 43.3725 32.8689 43.6648Z" fill="#F35045"/>
<path d="M11.7992 32.2828C12.307 32.1666 21.8213 29.8896 22.0244 29.8461C22.2275 29.8025 22.358 29.6865 22.1404 29.3096C21.9229 28.9326 9.45801 7.41699 9.45801 7.41699C9.34297 7.21953 9.37578 7.15371 9.06308 7.17012C8.78437 7.18496 1.73144 7.81426 0.0986298 7.95059C0.0504312 8.29584 0.0203769 8.64339 0.0085907 8.9918C1.66621 12.3854 11.1803 32.0068 11.2336 32.1666C11.2916 32.3408 11.2916 32.3988 11.7992 32.2828Z" fill="#F35045"/>
</svg>
