<svg width="58" height="58" viewBox="0 0 58 58" fill="none" xmlns="http://www.w3.org/2000/svg">
<g filter="url(#filter0_d)">
<path d="M44.3259 19.6853C43.5931 19.6853 43.0953 19.7533 42.8325 19.8306V24.5393C43.1448 24.6074 43.522 24.6321 44.0414 24.6321C45.9614 24.6321 47.1455 23.6644 47.1455 22.0288C47.1425 20.5633 46.1253 19.6853 44.3259 19.6853Z" fill="#030104"/>
<path d="M50.8093 0H7.19379C5.43149 0 4 1.42839 4 3.1907V46.8093C4 48.5654 5.42839 49.9969 7.19379 49.9969H50.8093C52.5716 49.9969 54 48.5654 54 46.8093V3.1907C54 1.42839 52.5716 0 50.8093 0ZM19.162 25.7235C17.9315 26.8829 16.1073 27.4023 13.9771 27.4023C13.5041 27.4023 13.0774 27.3776 12.7466 27.3312V33.0386H9.17252V17.2953C10.2856 17.1067 11.8469 16.9645 14.0513 16.9645C16.2743 16.9645 17.8635 17.3943 18.927 18.2445C19.9473 19.0514 20.6337 20.3747 20.6337 21.9361C20.6337 23.4974 20.1112 24.8238 19.162 25.7235ZM36.0987 33.0386H32.4999V26.3604H26.5606V33.0386H22.937V17.0851H26.5606V23.216H32.4999V17.0851H36.0987V33.0386ZM49.248 25.7235C48.0205 26.8829 46.1964 27.4023 44.0631 27.4023C43.5931 27.4023 43.1634 27.3776 42.8325 27.3312V33.0386H39.2616V17.2953C40.3715 17.1067 41.9328 16.9645 44.1373 16.9645C46.3633 16.9645 47.9463 17.3943 49.013 18.2445C50.0333 19.0514 50.7196 20.3747 50.7196 21.9361C50.7165 23.4974 50.1971 24.8238 49.248 25.7235Z" fill="#030104"/>
<path d="M14.2399 19.6853C13.5041 19.6853 13.0094 19.7533 12.7466 19.8306V24.5393C13.0558 24.6074 13.433 24.6321 13.9555 24.6321C15.8724 24.6321 17.0565 23.6644 17.0565 22.0288C17.0565 20.5633 16.0393 19.6853 14.2399 19.6853Z" fill="#030104"/>
</g>
<defs>
<filter id="filter0_d" x="0" y="0" width="58" height="57.9969" filterUnits="userSpaceOnUse" color-interpolation-filters="sRGB">
<feFlood flood-opacity="0" result="BackgroundImageFix"/>
<feColorMatrix in="SourceAlpha" type="matrix" values="0 0 0 0 0 0 0 0 0 0 0 0 0 0 0 0 0 0 127 0"/>
<feOffset dy="4"/>
<feGaussianBlur stdDeviation="2"/>
<feColorMatrix type="matrix" values="0 0 0 0 0 0 0 0 0 0 0 0 0 0 0 0 0 0 0.25 0"/>
<feBlend mode="normal" in2="BackgroundImageFix" result="effect1_dropShadow"/>
<feBlend mode="normal" in="SourceGraphic" in2="effect1_dropShadow" result="shape"/>
</filter>
</defs>
</svg>
