<svg width="50" height="50" viewBox="0 0 50 50" fill="none" xmlns="http://www.w3.org/2000/svg">
<path d="M40.3259 19.6853C39.5931 19.6853 39.0953 19.7533 38.8325 19.8306V24.5393C39.1448 24.6074 39.522 24.6321 40.0414 24.6321C41.9614 24.6321 43.1455 23.6644 43.1455 22.0288C43.1425 20.5633 42.1253 19.6853 40.3259 19.6853Z" fill="#030104"/>
<path d="M46.8093 0H3.19379C1.43149 0 0 1.42839 0 3.1907V46.8093C0 48.5654 1.42839 49.9969 3.19379 49.9969H46.8093C48.5716 49.9969 50 48.5654 50 46.8093V3.1907C50 1.42839 48.5716 0 46.8093 0ZM15.162 25.7235C13.9315 26.8829 12.1073 27.4023 9.97712 27.4023C9.50408 27.4023 9.07742 27.3776 8.7466 27.3312V33.0386H5.17252V17.2953C6.28555 17.1067 7.84689 16.9645 10.0513 16.9645C12.2743 16.9645 13.8635 17.3943 14.927 18.2445C15.9473 19.0514 16.6337 20.3747 16.6337 21.9361C16.6337 23.4974 16.1112 24.8238 15.162 25.7235ZM32.0987 33.0386H28.4999V26.3604H22.5606V33.0386H18.937V17.0851H22.5606V23.216H28.4999V17.0851H32.0987V33.0386ZM45.248 25.7235C44.0205 26.8829 42.1964 27.4023 40.0631 27.4023C39.5931 27.4023 39.1634 27.3776 38.8325 27.3312V33.0386H35.2616V17.2953C36.3715 17.1067 37.9328 16.9645 40.1373 16.9645C42.3633 16.9645 43.9463 17.3943 45.013 18.2445C46.0333 19.0514 46.7196 20.3747 46.7196 21.9361C46.7165 23.4974 46.1971 24.8238 45.248 25.7235Z" fill="#030104"/>
<path d="M10.2399 19.6853C9.50406 19.6853 9.00938 19.7533 8.74658 19.8306V24.5393C9.05576 24.6074 9.43295 24.6321 9.95546 24.6321C11.8724 24.6321 13.0565 23.6644 13.0565 22.0288C13.0565 20.5633 12.0393 19.6853 10.2399 19.6853Z" fill="#030104"/>
</svg>
